<?xml version='1.0' encoding='utf-8'?>
<svg xmlns="http://www.w3.org/2000/svg" width="512" height="512" viewBox="36 36 440 440" fill="none">
<defs><linearGradient id="oliveShift" x1="0%" y1="0%" x2="0%" y2="100%"><stop offset="0%" stop-color="#6fbb53" /><stop offset="55%" stop-color="#4f923f" /><stop offset="100%" stop-color="#2f6a2b" /></linearGradient></defs><defs>
  <linearGradient id="softGreenTintV4" x1="0%" y1="0%" x2="100%" y2="100%">
    <stop offset="0%" stop-color="#4aff60" />
    <stop offset="45%" stop-color="#22e246" />
    <stop offset="100%" stop-color="#167427" />
  </linearGradient>
</defs>

<defs>
  <linearGradient id="softGreenTintV3" x1="0%" y1="0%" x2="100%" y2="100%">
    <stop offset="0%" stop-color="#34d25b" />
    <stop offset="50%" stop-color="#239e47" />
    <stop offset="100%" stop-color="#147b34" />
  </linearGradient>
</defs>

<defs>
  <linearGradient id="softGreenTintV2" x1="0%" y1="0%" x2="100%" y2="100%">
    <stop offset="0%" stop-color="#2abe53" />
    <stop offset="50%" stop-color="#1f7f3b" />
    <stop offset="100%" stop-color="#0f612b" />
  </linearGradient>
</defs>

<defs>
  <linearGradient id="softGreenTint" x1="0%" y1="0%" x2="100%" y2="100%">
    <stop offset="0%" stop-color="#2ec14f" />
    <stop offset="50%" stop-color="#1f8c3f" />
    <stop offset="100%" stop-color="#146d2d" />
  </linearGradient>
</defs>

  <defs>
    <linearGradient id="shield_gradient" x1="50" y1="50" x2="462" y2="462" gradientUnits="userSpaceOnUse">
      <stop offset="0" stop-color="#81e463" />
      <stop offset="1" stop-color="#21acb6" />
    </linearGradient>
    
  </defs>
  <g>
    <path d="M256 460C256 460 416 380 416 260V120L256 60L96 120V260C96 380 256 460 256 460Z" fill="url(#shield_gradient)" />
    <path d="M256 460C256 460 416 380 416 260V120L256 60L96 120V260C96 380 256 460 256 460Z" stroke="white" stroke-opacity="0.2" stroke-width="8" />
    <path d="M196 256L236 296L316 216" stroke="white" stroke-width="48" stroke-linecap="round" stroke-linejoin="round" />
  </g>
</svg>